P3
2 2
255
0 0 0
0 0 0
255 255 255
100 100 100

